<svg xmlns="http://www.w3.org/2000/svg" xmlns:xlink="http://www.w3.org/1999/xlink" width="1924" height="884" viewBox="0 0 1924 884"><defs><style>.a{fill:url(#a);}.b,.c{fill:#fff;}.b{opacity:0.2;}.c{opacity:0.1;}.d{opacity:0.8;}.e{fill:none;stroke:#89eb99;stroke-linecap:round;stroke-linejoin:round;stroke-width:2px;stroke-dasharray:4 5.839;}.f{clip-path:url(#c);}.g{fill:#89eb99;opacity:0.096;}.h{fill:#66bb6a;opacity:0.196;}</style><linearGradient id="a" y1="0.45" x2="1.082" y2="0.447" gradientUnits="objectBoundingBox"><stop offset="0" stop-color="#66bbab"/><stop offset="1" stop-color="#89eb99"/></linearGradient><clipPath id="c"><rect class="a" width="1920" height="880" transform="translate(2153 -6678)"/></clipPath></defs><g transform="translate(-46 -92)"><rect class="a" width="1920" height="880" transform="translate(46 96)"/><circle class="b" cx="89.5" cy="89.5" r="89.5" transform="translate(1431 157)"/><circle class="b" cx="62.5" cy="62.5" r="62.5" transform="translate(1529 271)"/><circle class="c" cx="140" cy="140" r="140" transform="translate(726 454)"/><g class="d" transform="translate(1090.318 1124.946)"><circle class="e" cx="71.949" cy="71.949" r="71.949" transform="translate(-179.318 -501.946)"/><circle class="e" cx="64.754" cy="64.754" r="64.754" transform="translate(-172.123 -494.751)"/><circle class="e" cx="58.278" cy="58.278" r="58.278" transform="translate(-165.648 -488.276)"/><circle class="e" cx="49.537" cy="49.537" r="49.537" transform="translate(-156.906 -479.534)"/><circle class="e" cx="42.106" cy="42.106" r="42.106" transform="translate(-149.475 -472.104)"/><circle class="e" cx="33.685" cy="33.685" r="33.685" transform="translate(-141.054 -463.682)"/><circle class="e" cx="25.264" cy="25.264" r="25.264" transform="translate(-132.633 -455.261)"/><circle class="e" cx="17.685" cy="17.685" r="17.685" transform="translate(-125.054 -447.682)"/><circle class="e" cx="11.495" cy="11.495" r="11.495" transform="translate(-118.864 -441.493)"/></g><g class="f" transform="translate(-2103 6770)"><rect class="g" width="960" height="100" rx="39" transform="translate(1564 -6678)"/><rect class="g" width="960" height="100" rx="50" transform="translate(1340 -6578)"/><rect class="g" width="960" height="100" rx="50" transform="translate(1464 -6478)"/><rect class="h" width="960" height="100" rx="50" transform="translate(4715 -5798) rotate(180)"/><rect class="h" width="960" height="100" rx="50" transform="translate(4623 -5898) rotate(180)"/></g></g></svg>