<svg xmlns="http://www.w3.org/2000/svg" xmlns:xlink="http://www.w3.org/1999/xlink" width="202" height="42.49" viewBox="0 0 202 42.49"><defs><style>.a{fill:#212121;}.b,.d{fill:none;}.c{clip-path:url(#a);}.d{stroke:#212121;stroke-linecap:round;stroke-linejoin:round;stroke-miterlimit:10;stroke-width:5px;}</style><clipPath id="a"><path class="a" d="M0,0H24.856V27.628H0Z" transform="translate(0.734 0.372)"/></clipPath></defs><g transform="translate(2.5)"><path class="a" d="M8.566,21.525A5.588,5.588,0,0,0,14.348,27.5a10.406,10.406,0,0,0,4.407-.8,8.387,8.387,0,0,1,2.164-.889,3.212,3.212,0,0,1,3.576,1.61,3.672,3.672,0,0,1-1.082,4.828C21.125,34.153,17.55,35,14.348,35,7.151,35,0,31.269,0,21.907V13.094C0,3.729,7.151,0,14.348,0c3.7,0,6.571.889,8.193,2.078,1.7,1.228,2.537,3.262,1.538,5.042a3.574,3.574,0,0,1-3.785,1.822,10.028,10.028,0,0,1-2.287-.891,9.4,9.4,0,0,0-3.659-.55,5.588,5.588,0,0,0-5.783,5.975Z" transform="translate(28 6)"/><g transform="translate(55 13)"><path class="b" d="M0,0H24.856V27.628H0Z" transform="translate(0.734 0.372)"/><g class="c"><path class="a" d="M12.428,27.628a16.466,16.466,0,0,1-4.347-.558,11.716,11.716,0,0,1-4-1.918C1.371,23.1,0,19.952,0,15.781V11.846c0-4.181,1.355-7.334,4.028-9.37A13.959,13.959,0,0,1,12.428,0a16.468,16.468,0,0,1,4.346.558,11.718,11.718,0,0,1,4,1.917c2.705,2.047,4.077,5.2,4.077,9.37v3.935c0,4.171-1.372,7.324-4.077,9.372a11.717,11.717,0,0,1-4,1.918A16.464,16.464,0,0,1,12.428,27.628Zm0-20.4c-2.815,0-3.814,2.28-3.814,4.233v4.7c0,1.953,1,4.235,3.814,4.235s3.814-2.281,3.814-4.235v-4.7C16.242,9.509,15.243,7.229,12.428,7.229Z" transform="translate(0.734 0.372)"/></g></g><path class="a" d="M10.062,36a9.775,9.775,0,0,1-7.073-2.459C1.006,31.616,0,28.565,0,24.473V20.713c0-4.093,1.006-7.143,2.989-9.068a9.776,9.776,0,0,1,7.073-2.459,8.425,8.425,0,0,1,5.568,1.962V4.175a4.056,4.056,0,0,1,1.283-3.121A4.342,4.342,0,0,1,19.835,0a4.278,4.278,0,0,1,2.9,1.054A4.081,4.081,0,0,1,24,4.175V35.289H17.443l-.455-2.714A8.367,8.367,0,0,1,10.062,36Zm1.98-19.67a3.647,3.647,0,0,0-2.316.835,3.72,3.72,0,0,0-1.233,2.963v4.931a3.724,3.724,0,0,0,1.233,2.965,3.645,3.645,0,0,0,2.316.836,3.562,3.562,0,0,0,3.588-3.594V19.921A3.591,3.591,0,0,0,12.042,16.33Z" transform="translate(84 5)"/><path class="a" d="M0,26V4.16A4.012,4.012,0,0,1,4.267,0,4.24,4.24,0,0,1,8.2,2.288,9.26,9.26,0,0,1,14.364,0C19.731,0,24,2.62,24,11.4V26H15.3V10.9c0-2.828-1.9-3.786-3.34-3.786S8.576,8.071,8.576,10.9V26Z" transform="translate(148 14)"/><path class="d" d="M0,0,13,13,0,26" transform="translate(184 11)"/><path class="d" d="M0,25,18,0" transform="translate(118 14)"/><path class="a" d="M7,3.5A3.5,3.5,0,1,1,3.5,0,3.5,3.5,0,0,1,7,3.5" transform="translate(140)"/><path class="d" d="M13,26,0,13,13,0" transform="translate(0 11)"/></g></svg>